# xmcd
#
# Track frame offsets:
#	150
#	11016
#	23414
#	42255
#	57407
#	72054
#	82470
#	102049
#	116968
#	129884
#	140955
#	159568
#	175936
#
# Disc length: 2488 seconds
#
# Revision: 1
# Processed by: cddbd v1.5.2PL0 Copyright (c) Steve Scherf et al.
# Submitted via: audiograbber 1.81.03
#
DISCID=b209b60d
DTITLE=Robin`Stanley - Chronic Empire
DYEAR=2007
DGENRE=Blues
TTITLE0=Once Upon A Time
TTITLE1=Born Under A Bad Sign
TTITLE2=One Way Avenue
TTITLE3=Waiting For The World To End
TTITLE4=Angel Of Mercy
TTITLE5=A`Heart Without A Home
TTITLE6=Master Of Disguise
TTITLE7=Best Mistake
TTITLE8=Chronic Empire
TTITLE9=Love's Made A Fool Of Me
TTITLE10=Suburban Lawns
TTITLE11=To The End
TTITLE12=A Heart Without A Home Remix
EXTD=
EXTT0=
EXTT1=
EXTT2=
EXTT3=
EXTT4=
EXTT5=
EXTT6=
EXTT7=
EXTT8=
EXTT9=
EXTT10=
EXTT11=
EXTT12=
PLAYORDER=
